HIERARCHY
ROOT Hips
{
	OFFSET	0.00	0.00	0.00
	CHANNELS 6 Xposition Yposition Zposition Zrotation Xrotation Yrotation
	JOINT LeftUpLeg
	{
		OFFSET	 0.126116	-0.065224	 0.014019
		CHANNELS 3 Zrotation Xrotation Yrotation
		JOINT LeftLeg
		{
			OFFSET	 0.000000	 0.569914	 0.000000
			CHANNELS 3 Zrotation Xrotation Yrotation
			JOINT LeftFoot
			{
				OFFSET	 0.000000	 0.544423	 0.000000
				CHANNELS 3 Zrotation Xrotation Yrotation
				JOINT LeftToeBase
				{
					OFFSET	 0.000000	 0.207117	 0.000000
					CHANNELS 3 Zrotation Xrotation Yrotation
					End Site
					{
						OFFSET	 0.000000	 0.207117	 0.000000
					}
				}
			}
		}
	}
	JOINT RightUpLeg
	{
		OFFSET	-0.124023	-0.065224	 0.008373
		CHANNELS 3 Zrotation Xrotation Yrotation
		JOINT RightLeg
		{
			OFFSET	 0.000000	 0.570047	 0.000000
			CHANNELS 3 Zrotation Xrotation Yrotation
			JOINT RightFoot
			{
				OFFSET	 0.000000	 0.544354	 0.000000
				CHANNELS 3 Zrotation Xrotation Yrotation
				JOINT RightToeBase
				{
					OFFSET	 0.000000	 0.207540	 0.000000
					CHANNELS 3 Zrotation Xrotation Yrotation
					End Site
					{
						OFFSET	 0.000000	 0.207540	 0.000000
					}
				}
			}
		}
	}
	JOINT Spine
	{
		OFFSET	 0.000184	 0.117403	 0.007763
		CHANNELS 3 Zrotation Xrotation Yrotation
		JOINT Spine1
		{
			OFFSET	 0.000000	 0.137269	 0.000000
			CHANNELS 3 Zrotation Xrotation Yrotation
			JOINT Spine2
			{
				OFFSET	 0.000000	 0.156879	 0.000000
				CHANNELS 3 Zrotation Xrotation Yrotation
				JOINT LeftShoulder
				{
					OFFSET	 0.080501	 0.160143	 0.002496
					CHANNELS 3 Zrotation Xrotation Yrotation
					JOINT LeftArm
					{
						OFFSET	 0.000000	 0.164363	 0.000000
						CHANNELS 3 Zrotation Xrotation Yrotation
						JOINT LeftForeArm
						{
							OFFSET	 0.000000	 0.364576	 0.000000
							CHANNELS 3 Zrotation Xrotation Yrotation
							JOINT LeftHand
							{
								OFFSET	 0.000000	 0.360812	 0.000000
								CHANNELS 3 Zrotation Xrotation Yrotation
								JOINT LeftHandIndex1
								{
									OFFSET	 0.000000	 0.086006	 0.000000
									CHANNELS 3 Zrotation Xrotation Yrotation
									JOINT LeftHandIndex2
									{
										OFFSET	 0.000000	 0.047237	 0.000000
										CHANNELS 3 Zrotation Xrotation Yrotation
										JOINT LeftHandIndex3
										{
											OFFSET	-0.004284	 0.038165	 0.000551
											CHANNELS 3 Zrotation Xrotation Yrotation
											End Site
											{
												OFFSET	-0.004284	 0.038165	 0.000551
											}
										}
									}
								}
							}
						}
					}
				}
				JOINT Neck
				{
					OFFSET	 0.000000	 0.176489	 0.000000
					CHANNELS 3 Zrotation Xrotation Yrotation
					JOINT Head
					{
						OFFSET	 0.000000	 0.077941	 0.001747
						CHANNELS 3 Zrotation Xrotation Yrotation
						End Site
						{
							OFFSET	 0.000000	 0.077941	 0.001747
						}
					}
				}
				JOINT RightShoulder
				{
					OFFSET	-0.080363	 0.159706	-0.000306
					CHANNELS 3 Zrotation Xrotation Yrotation
					JOINT RightArm
					{
						OFFSET	 0.000000	 0.164196	 0.000000
						CHANNELS 3 Zrotation Xrotation Yrotation
						JOINT RightForeArm
						{
							OFFSET	 0.000000	 0.365611	 0.000000
							CHANNELS 3 Zrotation Xrotation Yrotation
							JOINT RightHand
							{
								OFFSET	 0.000000	 0.360648	 0.000000
								CHANNELS 3 Zrotation Xrotation Yrotation
								JOINT RightHandIndex1
								{
									OFFSET	 0.000000	 0.069977	 0.000000
									CHANNELS 3 Zrotation Xrotation Yrotation
									JOINT RightHandIndex2
									{
										OFFSET	 0.000000	 0.052305	 0.000000
										CHANNELS 3 Zrotation Xrotation Yrotation
										JOINT RightHandIndex3
										{
											OFFSET	 0.009002	 0.042196	 0.000782
											CHANNELS 3 Zrotation Xrotation Yrotation
											End Site
											{
												OFFSET	 0.009002	 0.042196	 0.000782
											}
										}
									}
								}
							}
						}
					}
				}
			}
		}
	}
}
MOTION
Frames:    4
Frame Time: 0.03333334
-0.015809	 1.255626	 0.115142	 4.166220	 0.202633	 174.107000	-170.494800	 15.821990	 5.640665	 2.343058	-23.913210	 1.111112	 45.552760	 46.155030	-62.137600	 4.912826	 28.009680	-6.307245	-173.727400	 5.500997	 0.231345	-1.811515	-20.142730	 1.761785	-57.854600	 58.566150	 64.750020	-0.383520	 31.180250	 1.640008	 1.307585	 4.417021	-1.306113	 7.456083	 5.001742	-0.147547	-5.629467	-2.040957	 3.982791	-112.526900	 3.082649	 88.307880	 50.499270	 39.994470	-14.035390	 5.004651	-0.234379	 0.042869	-25.603670	 6.256348	-41.947220	-7.972535	 12.546040	-5.844289	-7.228942	 12.655580	 2.802860	 4.963066	-4.014628	-0.346955	 1.480795	-13.857930	 1.372225	-1.953017	 8.744576	-27.440590	 109.080200	 0.709326	-88.612790	-11.751430	 61.888820	 11.542500	-6.645482	-0.888331	 41.781360	-15.372510	-3.199903	-54.492630	 1.976420	 8.203119	 8.959732	 15.203040	 20.270400	-6.350053	-8.239867	-2.131385	 0.447455
-0.016122	 1.254987	 0.114662	 4.086495	 0.090490	 174.321100	-170.352600	 16.162620	 4.342949	 2.373015	-24.183970	 1.211488	 45.752310	 46.004810	-62.064500	 4.912833	 28.009710	-6.307214	-174.074800	 5.844165	 1.887338	-1.854775	-20.583600	 1.531373	-58.502820	 58.571300	 65.520070	-0.402075	 31.202910	 1.658410	 1.442560	 4.382847	-3.219914	 7.187171	 4.768953	-0.121106	-5.336469	-1.842323	 3.855109	-112.421400	 2.950587	 88.289930	 50.275720	 39.990850	-14.185130	 6.091540	-0.224639	-1.185078	-25.586580	 5.861770	-41.640660	-7.850978	 12.645590	-5.874532	-7.229495	 12.632470	 2.799705	 4.963066	-4.014628	-0.346955	 1.371889	-13.692630	 1.428073	-1.905732	 9.215863	-27.793670	 108.948400	 0.810114	-88.663730	-12.271320	 61.500070	 12.406930	-6.607934	-1.508549	 42.678410	-15.178070	-2.925906	-53.353680	 1.871904	 7.921081	 8.956833	 15.203470	 20.332970	-6.367179	-8.239867	-2.131385	 0.447455
-0.016682	 1.253851	 0.113724	 3.968504	-0.079249	 174.640300	-170.285700	 16.668120	 3.132558	 2.425825	-24.658490	 1.361322	 46.098290	 45.891330	-62.152310	 4.912842	 28.009760	-6.307168	-174.498100	 6.368585	 3.674378	-1.927582	-21.320030	 1.201191	-59.458270	 58.588510	 66.668560	-0.429802	 31.236740	 1.685907	 1.642800	 4.323246	-6.042192	 6.781316	 4.432063	-0.068648	-4.901520	-1.553132	 3.658572	-112.264100	 2.753342	 88.263530	 49.945850	 40.069980	-14.409780	 7.723378	-0.210830	-3.016329	-25.494670	 5.196589	-41.178870	-7.669301	 12.794110	-5.920110	-7.230322	 12.597960	 2.794995	 4.963066	-4.014628	-0.346955	 1.209120	-13.446000	 1.511985	-1.828500	 9.918354	-28.324150	 108.751900	 0.960773	-88.739320	-12.081820	 61.191130	 12.837050	-7.483827	-2.500185	 43.990300	-14.642260	-2.854186	-51.719020	 1.715949	 7.499964	 8.951539	 15.204150	 20.426370	-6.392759	-8.239867	-2.131385	 0.447455
-0.017572	 1.252076	 0.112132	 3.813470	-0.306225	 175.062800	-170.300300	 17.353680	 2.034340	 2.507732	-25.387140	 1.559259	 46.618190	 45.841180	-62.443500	 4.912855	 28.009840	-6.307106	-175.015500	 7.078849	 5.575219	-2.034748	-22.390450	 0.787097	-60.741950	 58.638920	 68.223190	-0.466593	 31.281570	 1.722395	 1.902459	 4.232675	-9.695583	 6.235190	 4.007452	 0.023361	-4.329657	-1.185882	 3.387426	-112.055700	 2.491846	 88.229420	 49.399230	 40.237290	-14.609640	 9.895838	-0.193869	-5.435340	-25.181180	 4.292891	-40.543250	-7.428162	 12.990720	-5.981303	-7.231424	 12.552240	 2.788753	 4.963066	-4.014628	-0.346955	 0.993070	-13.119500	 1.624180	-1.713917	 10.846820	-29.033660	 108.491700	 1.160855	-88.838750	-11.261330	 60.949110	 12.900060	-9.123348	-3.818530	 45.686130	-13.862580	-2.908824	-49.532770	 1.509394	 6.941805	 8.942752	 15.205130	 20.550160	-6.426687	-8.239867	-2.131385	 0.447455
